<svg width="20" height="20" viewBox="0 0 20 20" xmlns="http://www.w3.org/2000/svg">
<path d="M2.94245 15.7391C2.32374 15.0725 1.86691 14.3188 1.57194 13.4783C1.27698 12.6377 1.08633 11.7681 1 10.8696H2.61871C2.71942 11.5362 2.88849 12.1884 3.1259 12.8261C3.36331 13.4638 3.69784 14.0507 4.1295 14.587L2.94245 15.7391ZM1 9.13043C1.1295 8.24638 1.34532 7.38406 1.64748 6.54348C1.94964 5.7029 2.38129 4.93478 2.94245 4.23913L4.1295 5.41304C3.69784 5.94928 3.36331 6.53623 3.1259 7.17391C2.88849 7.81159 2.71942 8.46377 2.61871 9.13043H1ZM9.07194 19C8.19424 18.8986 7.33813 18.6957 6.5036 18.3913C5.66906 18.087 4.91367 17.6594 4.23741 17.1087L5.40288 15.8913C5.94964 16.2826 6.52878 16.6087 7.14029 16.8696C7.7518 17.1304 8.39568 17.3116 9.07194 17.413V19ZM5.46763 4.13043L4.23741 2.8913C4.92806 2.32609 5.69424 1.8913 6.53597 1.58696C7.3777 1.28261 8.2446 1.08696 9.13669 1V2.58696C8.46043 2.67391 7.81295 2.85145 7.19424 3.11957C6.57554 3.38768 6 3.72464 5.46763 4.13043ZM10.0216 12.4565C9.33094 12.4565 8.7518 12.2174 8.28417 11.7391C7.81655 11.2609 7.58273 10.6812 7.58273 10C7.58273 9.31884 7.81655 8.73913 8.28417 8.26087C8.7518 7.78261 9.33094 7.54348 10.0216 7.54348C10.6978 7.54348 11.2734 7.78261 11.7482 8.26087C12.223 8.73913 12.4604 9.31884 12.4604 10C12.4604 10.6812 12.223 11.2609 11.7482 11.7391C11.2734 12.2174 10.6978 12.4565 10.0216 12.4565ZM10.8201 19V17.413C11.482 17.3116 12.1259 17.1232 12.7518 16.8478C13.3777 16.5725 13.9784 16.2464 14.554 15.8696L15.7626 17.1087C15.0576 17.6739 14.2806 18.1087 13.4317 18.413C12.5827 18.7174 11.7122 18.913 10.8201 19ZM14.5971 4.1087C14.036 3.7029 13.446 3.37319 12.8273 3.11957C12.2086 2.86594 11.5612 2.68841 10.8849 2.58696V1C11.7626 1.10145 12.6151 1.30797 13.4424 1.61957C14.2698 1.93116 15.0432 2.35507 15.7626 2.8913L14.5971 4.1087ZM17.0576 15.7609L15.8921 14.587C16.295 14.0507 16.6151 13.4638 16.8525 12.8261C17.0899 12.1884 17.2662 11.5362 17.3813 10.8696H19C18.8561 11.7536 18.6367 12.6159 18.3417 13.4565C18.0468 14.2971 17.6187 15.0652 17.0576 15.7609ZM17.3813 9.13043C17.2662 8.46377 17.0899 7.81159 16.8525 7.17391C16.6151 6.53623 16.295 5.94928 15.8921 5.41304L17.0576 4.26087C17.6619 4.92754 18.1115 5.68116 18.4065 6.52174C18.7014 7.36232 18.8993 8.23188 19 9.13043H17.3813Z"/>
</svg>
