<svg width="20" height="20" viewBox="0 0 20 20"  xmlns="http://www.w3.org/2000/svg">
<path d="M9.97649 19C7.45917 19 5.32592 18.1223 3.57675 16.367C1.82757 14.6117 0.968944 12.4814 1.00086 9.97606H2.77205C2.74014 12.0027 3.42229 13.7221 4.8185 15.1343C6.2147 16.5465 7.92606 17.2527 9.95256 17.2527C11.9816 17.2527 13.7056 16.5335 15.1244 15.0953C16.5433 13.6572 17.2527 11.9229 17.2527 9.89229C17.2527 7.88963 16.538 6.19814 15.1086 4.81782C13.6792 3.4375 11.9685 2.74734 9.97649 2.74734C8.8332 2.74734 7.76147 3.01064 6.7613 3.53723C5.7613 4.06383 4.91822 4.76596 4.23209 5.64362H6.86494V7.39096H1.26414V1.81383H3.0114V4.375C3.84115 3.30585 4.86748 2.47606 6.0904 1.88564C7.31316 1.29521 8.60853 1 9.97649 1C11.2198 1 12.3884 1.23617 13.4823 1.70851C14.5761 2.18085 15.5281 2.81931 16.3382 3.62388C17.1485 4.42862 17.7946 5.37497 18.2767 6.46295C18.7589 7.55093 19 8.71559 19 9.95692C19 11.1984 18.7589 12.3695 18.2767 13.4703C17.7946 14.5709 17.1485 15.5315 16.3382 16.3522C15.5281 17.1727 14.5761 17.8192 13.4823 18.2915C12.3884 18.7638 11.2198 19 9.97649 19ZM12.753 14.141L8.87548 10.3454V4.94947H10.6227V9.59309L13.9976 12.8963L12.753 14.141Z" />
</svg>
