<svg width="20" height="20" viewBox="0 0 20 20"  xmlns="http://www.w3.org/2000/svg">
<path d="M5.65684 14.9223C5.89812 14.9223 6.10724 14.8378 6.28418 14.6689C6.46113 14.5 6.5496 14.2949 6.5496 14.0536C6.5496 13.8123 6.46113 13.6032 6.28418 13.4263C6.10724 13.2493 5.89812 13.1609 5.65684 13.1609C5.41555 13.1609 5.21046 13.2493 5.04155 13.4263C4.87265 13.6032 4.7882 13.8123 4.7882 14.0536C4.7882 14.2949 4.87265 14.5 5.04155 14.6689C5.21046 14.8378 5.41555 14.9223 5.65684 14.9223ZM5.65684 10.8686C5.89812 10.8686 6.10724 10.7842 6.28418 10.6153C6.46113 10.4464 6.5496 10.2413 6.5496 10C6.5496 9.75871 6.46113 9.5496 6.28418 9.37265C6.10724 9.19571 5.89812 9.10724 5.65684 9.10724C5.41555 9.10724 5.21046 9.19571 5.04155 9.37265C4.87265 9.5496 4.7882 9.75871 4.7882 10C4.7882 10.2413 4.87265 10.4464 5.04155 10.6153C5.21046 10.7842 5.41555 10.8686 5.65684 10.8686ZM5.65684 6.79088C5.89812 6.79088 6.10724 6.70643 6.28418 6.53753C6.46113 6.36863 6.5496 6.16354 6.5496 5.92225C6.5496 5.68097 6.46113 5.47185 6.28418 5.29491C6.10724 5.11796 5.89812 5.02949 5.65684 5.02949C5.41555 5.02949 5.21046 5.11796 5.04155 5.29491C4.87265 5.47185 4.7882 5.68097 4.7882 5.92225C4.7882 6.16354 4.87265 6.36863 5.04155 6.53753C5.21046 6.70643 5.41555 6.79088 5.65684 6.79088ZM8.76944 14.9464H14.8981V13.185H8.76944V14.9464ZM8.76944 10.8686H14.8981V9.10724H8.76944V10.8686ZM8.76944 6.81501H14.8981V5.05362H8.76944V6.81501ZM2.76139 19C2.29925 19 1.89019 18.8219 1.53421 18.4658C1.17807 18.1098 1 17.7008 1 17.2386V2.76139C1 2.29941 1.17807 1.89035 1.53421 1.53421C1.89019 1.17807 2.29925 1 2.76139 1H17.2386C17.7006 1 18.1097 1.17807 18.4658 1.53421C18.8219 1.89035 19 2.29941 19 2.76139V17.2386C19 17.7008 18.8219 18.1098 18.4658 18.4658C18.1097 18.8219 17.7006 19 17.2386 19H2.76139ZM2.76139 17.2386H17.2386V2.76139H2.76139V17.2386Z" />
</svg>
