<svg width="20" height="20" viewBox="0 0 20 20" fill="none" xmlns="http://www.w3.org/2000/svg">
<g clip-path="url(#clip0_532_23605)">
<path d="M10 2.06665C14.41 2.06665 18 5.07879 18 8.78326C18 12.4877 14.41 15.4999 10 15.4999C9.825 15.4999 9.65 15.4947 9.46 15.4792C9.37 15.474 9.285 15.4689 9.2 15.4689C8.27 15.4689 7.355 15.815 6.625 16.4505C6.3 16.7295 5.925 16.9672 5.54 17.1635C5.54 16.8019 5.525 16.4195 5.49 16.0217C5.4 14.9884 4.935 14.0429 4.17 13.3557C2.77 12.1002 2 10.4779 2 8.78326C2 5.07879 5.59 2.06665 10 2.06665ZM10 0C4.475 0 0 3.9318 0 8.78326C0 11.1754 1.095 13.3351 2.86 14.9212C3.225 15.2467 3.455 15.7065 3.5 16.2077C3.595 17.2979 3.55 18.4965 3.125 19.3645C2.98 19.659 3.175 20 3.475 20C3.5 20 3.53 20 3.56 19.9897C4.705 19.7572 6.55 19.2147 7.91 18.0418C8.275 17.7267 8.73 17.5459 9.2 17.5459C9.245 17.5459 9.285 17.5459 9.33 17.5459C9.55 17.5614 9.775 17.5717 10 17.5717C15.525 17.5717 20 13.6399 20 8.78843C20 3.93697 15.525 0 10 0Z" fill="#898989"/>
</g>
<defs>
<clipPath id="clip0_532_23605">
<rect width="20" height="20" fill="white"/>
</clipPath>
</defs>
</svg>
