<svg width="20" height="20" viewBox="0 0 20 20" fill="none" xmlns="http://www.w3.org/2000/svg">
<path d="M1 17.0001V15.3268H3.14857V8.00761C3.14857 6.59823 3.61168 5.3312 4.5379 4.20654C5.46394 3.08188 6.69411 2.37449 8.22843 2.08436V1.57942C8.22843 1.14062 8.40037 0.767728 8.74425 0.460734C9.08813 0.153577 9.50561 0 9.99669 0C10.4878 0 10.9052 0.153577 11.2491 0.460734C11.593 0.767728 11.7649 1.14062 11.7649 1.57942V2.08436C13.2993 2.37056 14.5305 3.07665 15.4588 4.20262C16.3872 5.32859 16.8514 6.59692 16.8514 8.00761V15.3268H19V17.0001H1ZM10 20C9.37755 20 8.84462 19.8025 8.4012 19.4074C7.95777 19.0123 7.73606 18.5373 7.73606 17.9824H12.2639C12.2639 18.5383 12.0418 19.0135 11.5974 19.4081C11.1531 19.8027 10.6206 20 10 20ZM5.02889 15.3268H14.9645V8.00761C14.9645 6.78357 14.4815 5.74077 13.5155 4.87923C12.5496 4.01768 11.3766 3.58691 9.99669 3.58691C8.61674 3.58691 7.44379 4.01768 6.47783 4.87923C5.51187 5.74077 5.02889 6.78357 5.02889 8.00761V15.3268Z" fill="#898989"/>
</svg>
