<svg width="20" height="20" viewBox="0 0 20 20" fill="none" xmlns="http://www.w3.org/2000/svg">
<path d="M5.05481 2.94196H15.0006C15.0006 2.94196 14.1718 15.4187 10.0277 15.4187C8.0033 15.4187 6.77004 12.4413 6.03808 9.3954C5.27165 6.20622 5.05481 2.94196 5.05481 2.94196Z" stroke="#898989" stroke-width="1.4" stroke-linecap="round" stroke-linejoin="round"/>
<path d="M15.0005 2.94191C15.0005 2.94191 15.8675 2.01709 16.588 2.00077C17.9997 1.96881 18.2607 2.94191 18.2607 2.94191C18.537 3.51556 18.758 5.00703 17.4319 6.38378C16.1058 7.76052 14.6213 8.96517 14.0172 9.39536" stroke="#898989" stroke-width="1.4" stroke-linecap="round" stroke-linejoin="round"/>
<path d="M5.05475 2.94184C5.05475 2.94184 4.15145 2.00647 3.41217 2.00071C2.00047 1.98968 1.73949 2.94184 1.73949 2.94184C1.46321 3.51548 1.24219 5.00695 2.56831 6.38369C3.89441 7.76044 5.43399 8.96508 6.03802 9.39537" stroke="#898989" stroke-width="1.4" stroke-linecap="round" stroke-linejoin="round"/>
<path d="M6.71228 18C6.71228 16.2791 10.0275 15.4186 10.0275 15.4186C10.0275 15.4186 13.3428 16.2791 13.3428 18H6.71228Z" stroke="#898989" stroke-width="1.4" stroke-linecap="round" stroke-linejoin="round"/>
</svg>
