<svg width="20" height="20" viewBox="0 0 20 20" xmlns="http://www.w3.org/2000/svg">
<g clip-path="url(#clip0_1312_77074)">
<path d="M4.812 0C4.812 0 4.804 0 4.8 0C2.148 0 0 2.19184 0 4.89796V9.79592H3.2V18.3551C3.2 19.2612 3.92 20 4.812 20H18.392C19.28 20 20.004 19.2653 20.004 18.3551V1.6449C20.004 0.738776 19.284 0 18.392 0H4.812ZM1.6 8.16327V4.89796C1.6 3.6898 2.244 2.63673 3.2 2.06939V8.16327H1.6ZM4.8 18.3551L4.812 1.63265H18.392L18.404 1.6449L18.392 18.3673L4.8 18.3551Z" />
<path d="M12.26 8.86532C10.72 8.23267 10.268 7.81226 10.268 7.10614C10.268 6.54287 10.636 6.04083 11.272 6.04083C12.192 6.04083 12.728 6.76328 12.828 8.14695L15.204 7.61226C14.948 5.73879 13.916 4.59593 12.236 4.35104V3.00818H10.68V4.37961C8.95596 4.6694 7.86796 5.86532 7.86796 7.57961C7.86796 9.02042 8.67196 9.9143 10.864 10.9102C12.448 11.6327 12.94 12.0776 12.94 12.8123C12.94 13.547 12.488 13.9796 11.696 13.9796C10.58 13.9796 9.92796 13.3143 9.71596 11.9755L7.35596 12.6408C7.75196 14.4857 8.85596 15.5388 10.676 15.8V17.1429H12.232V15.8286C14.184 15.5959 15.312 14.2572 15.312 12.2816C15.312 10.6939 14.492 9.78777 12.26 8.86532Z" />
</g>
<defs>
<clipPath id="clip0_1312_77074">
<rect width="20" height="20" />
</clipPath>
</defs>
</svg>
