<svg width="20" height="20" viewBox="0 0 20 20"  xmlns="http://www.w3.org/2000/svg">
<g clip-path="url(#clip0_532_25276)">
<path d="M10 0C4.47747 0 0 4.47643 0 9.99768C0 12.2916 0.780306 14.3952 2.07617 16.0854C3.90618 18.463 6.7673 20 10 20C13.2327 20 16.0938 18.463 17.9238 16.0854C19.2197 14.3998 20 12.2916 20 10.0023C20 4.47643 15.5225 0 10 0ZM17.2736 14.5763C16.9345 14.1583 16.5165 13.8333 16.0009 13.6197C14.9466 13.1553 13.934 12.7978 12.9633 12.5517C12.4756 12.4263 11.9879 12.3334 11.4863 12.273C12.0158 12.0873 12.4849 11.7994 12.8843 11.4C13.6275 10.6571 14.0037 9.70049 14.0037 8.52566C14.0037 7.35082 13.6321 6.37102 12.8843 5.63269C12.1366 4.89436 11.1705 4.52751 9.98142 4.52751C8.79238 4.52751 7.83093 4.899 7.09707 5.63733C6.36321 6.37567 5.99628 7.33689 5.99628 8.51637C5.99628 9.69584 6.36321 10.6571 7.10172 11.4C7.49652 11.7994 7.95634 12.0873 8.47654 12.273C7.98885 12.3288 7.49652 12.417 7.00882 12.5331C6.02415 12.7653 5.00232 13.1275 3.94798 13.6243C3.46029 13.8519 3.0562 14.1769 2.72643 14.5856C1.88574 13.2575 1.38876 11.688 1.38876 10.0023C1.3934 5.25192 5.25314 1.39308 10 1.39308C14.7469 1.39308 18.6066 5.25192 18.6066 9.99768C18.6066 11.6833 18.1143 13.2482 17.2736 14.5763Z" />
</g>
<defs>
<clipPath id="clip0_532_25276">
<rect width="20" height="20"/>
</clipPath>
</defs>
</svg>
